<?xml version="1.0" encoding="UTF-8"?>
<svg version="1.1" xmlns="http://www.w3.org/2000/svg" width="512" height="512">
<path d="M0 0 C3.7866965 0.00685464 7.5733532 -0.0037221 11.3600415 -0.01193976 C18.75708035 -0.02521123 26.15402738 -0.02242906 33.55106968 -0.01370184 C39.56744311 -0.0069001 45.58379098 -0.00601928 51.60016716 -0.00927329 C52.45958118 -0.00973299 53.3189952 -0.01019269 54.20445208 -0.01066632 C55.95084557 -0.01162558 57.69723906 -0.01259823 59.44363254 -0.01358409 C75.78157793 -0.02211855 92.11947265 -0.0123342 108.45740973 0.00381701 C122.44895056 0.01722081 136.44041669 0.0148878 150.43195617 0.00106072 C166.71682957 -0.0150254 183.00165867 -0.02129728 199.2865389 -0.01210248 C201.02585744 -0.01114693 202.76517599 -0.01020382 204.50449455 -0.00927329 C205.78785243 -0.00857905 205.78785243 -0.00857905 207.09713672 -0.00787079 C213.10056484 -0.00529016 219.10396465 -0.00963174 225.10738838 -0.01671195 C232.43165745 -0.02516084 239.75583017 -0.02277593 247.08008832 -0.00686972 C250.81062754 0.00096732 254.54100662 0.00418349 258.27154434 -0.00581717 C286.82332868 -0.07609477 286.82332868 -0.07609477 298.98542297 3.39217401 C299.72989716 3.58412158 300.47437135 3.77606915 301.24140537 3.97383332 C330.54289065 11.93622387 354.85927909 32.39014942 369.98542297 58.39217401 C379.73867865 75.48974872 384.30954197 93.80059149 384.24611938 113.45203424 C384.24994493 114.72421219 384.25377047 115.99639015 384.25771195 117.30711895 C384.26792728 120.8086989 384.26582676 124.31017573 384.26153135 127.81176388 C384.25905222 131.59992573 384.26809306 135.38806349 384.27556884 139.17621636 C384.28828596 146.58695592 384.2901132 153.9976592 384.28776858 161.40840783 C384.28598157 167.43680713 384.28774326 173.46519546 384.29199302 179.49359345 C384.29258821 180.35339621 384.2931834 181.21319896 384.29379662 182.09905634 C384.29500845 183.84609176 384.29622259 185.59312719 384.297439 187.34016261 C384.30830346 203.70671663 384.30615749 220.07325002 384.30005416 236.43980519 C384.29488845 251.38539856 384.30613324 266.33092669 384.32515237 281.27650716 C384.34456444 296.64962752 384.35278072 312.02271707 384.34902912 327.39584976 C384.34712187 336.0157827 384.34955791 344.63566016 384.36374366 353.25558305 C384.3757016 360.59567546 384.37701332 367.93567825 384.3649535 375.275772 C384.35909502 379.01450581 384.35788033 382.75307606 384.3699559 386.49179864 C384.42359516 404.31292391 384.32706618 421.17039575 377.79792297 438.01717401 C377.49531555 438.8114782 377.19270813 439.6057824 376.88093078 440.42415643 C365.81697283 468.5455214 343.54566778 491.37380212 315.9585675 503.56063104 C310.42645861 505.89202956 304.80093513 507.89272092 298.98542297 509.39217401 C297.68287567 509.76370064 297.68287567 509.76370064 296.35401428 510.14273286 C283.12753722 513.37668608 269.61439564 512.82059187 256.08691156 512.78434801 C252.29951574 512.7775 248.51215994 512.78806695 244.72477233 512.79628778 C237.3242543 512.80956654 229.92382799 512.80677366 222.52330649 512.79804985 C216.50404873 512.79125051 210.48481653 512.79036627 204.46555603 512.7936213 C203.17623175 512.79431085 203.17623175 512.79431085 201.86086053 512.79501433 C200.1142255 512.79597359 198.36759048 512.79694623 196.62095547 512.7979321 C180.276338 512.80646884 163.93177117 512.79667888 147.58716202 512.780531 C133.58935648 512.76712939 119.5916256 512.76945797 105.59382141 512.78328729 C89.30419425 512.79937351 73.01461137 512.80564503 56.72497737 512.7964505 C54.98508156 512.79549494 53.24518574 512.79455182 51.50528991 512.7936213 C50.22148955 512.79292706 50.22148955 512.79292706 48.91175383 512.7922188 C42.9058326 512.78963802 36.89993967 512.79398013 30.89402282 512.80105996 C23.56606975 512.80950906 16.23821297 512.80712361 8.91027081 512.79121773 C5.17771331 512.7833806 1.44531585 512.78016464 -2.28724015 512.79016519 C-30.85505933 512.86044318 -30.85505933 512.86044318 -43.01457703 509.39217401 C-43.75903077 509.20022643 -44.5034845 509.00827886 -45.27049744 508.81051469 C-74.57199835 500.84837595 -98.88849894 480.39408551 -114.01457703 454.39217401 C-123.76783271 437.29459929 -128.33869603 418.98375652 -128.27527344 399.33231378 C-128.27909899 398.06013582 -128.28292454 396.78795786 -128.28686601 395.47722906 C-128.29708135 391.97564911 -128.29498083 388.47417228 -128.29068542 384.97258413 C-128.28820629 381.18442229 -128.29724712 377.39628452 -128.30472291 373.60813165 C-128.31744002 366.19739209 -128.31926726 358.78668882 -128.31692264 351.37594018 C-128.31513563 345.34754088 -128.31689732 339.31915255 -128.32114708 333.29075456 C-128.32174227 332.43095181 -128.32233746 331.57114905 -128.32295069 330.68529167 C-128.32416252 328.93825625 -128.32537665 327.19122082 -128.32659306 325.4441854 C-128.33745752 309.07763138 -128.33531155 292.71109799 -128.32920822 276.34454282 C-128.32404252 261.39894945 -128.3352873 246.45342132 -128.35430644 231.50784085 C-128.3737185 216.13472049 -128.38193478 200.76163094 -128.37818319 185.38849825 C-128.37627593 176.76856531 -128.37871198 168.14868785 -128.39289773 159.52876496 C-128.40485567 152.18867255 -128.40616739 144.84866976 -128.39410756 137.50857601 C-128.38824909 133.7698422 -128.3870344 130.03127196 -128.39910996 126.29254937 C-128.45274922 108.4714241 -128.35622024 91.61395226 -121.82707703 74.76717401 C-121.52446961 73.97286981 -121.22186219 73.17856561 -120.91008484 72.36019158 C-109.80240381 44.12769524 -87.54742981 21.53555875 -59.93596375 9.22371697 C-40.05285833 0.61865254 -21.32730529 -0.05722448 0 0 Z " fill="#5EBEE1" transform="translate(128.01457703113556,-0.39217400550842285)"/>
<path d="M0 0 C3.62011046 2.33296007 5.89022378 4.96794755 7.8125 8.8125 C8.05019011 14.23879135 7.54378271 19.03358639 6.25 24.3125 C5.88302925 25.88907068 5.51724525 27.46591785 5.15234375 29.04296875 C4.83885986 30.38367432 4.83885986 30.38367432 4.51904297 31.75146484 C3.06938032 38.03200053 1.6932595 44.32902939 0.3125 50.625 C0.15927277 51.32204041 0.00604553 52.01908081 -0.15182495 52.73724365 C-2.17217956 61.94085943 -4.06670911 71.15685717 -5.76953125 80.42504883 C-7.09152165 87.53427821 -8.70001156 94.56407229 -10.33691406 101.60644531 C-11.7204988 107.61183676 -12.9490232 113.62662309 -14.0625 119.6875 C-15.68318387 128.48166136 -17.56189825 137.20835073 -19.5 145.9375 C-22.06053339 157.47346953 -24.46441409 169.03147364 -26.75 180.625 C-29.48195422 194.47901028 -32.44458948 208.26420626 -35.58007812 222.03344727 C-36.35470314 225.57748123 -37.02261955 229.13813516 -37.66137695 232.70898438 C-38.89375088 237.6361926 -41.92581918 241.20050208 -46.1875 243.8125 C-50.9367061 245.3955687 -54.11592272 245.83836096 -58.6328125 243.6015625 C-64.31647824 240.07205579 -69.60531 236.03848191 -74.87109375 231.91943359 C-79.43828262 228.35263882 -84.10496766 224.94136718 -88.8125 221.5625 C-95.28166844 216.91706442 -101.7185095 212.2315536 -108.125 207.5 C-114.79244521 202.5760359 -121.47245678 197.6714751 -128.1875 192.8125 C-131.3140496 194.19329423 -133.35909615 195.76924669 -135.71166992 198.23657227 C-136.38304489 198.93391983 -137.05441986 199.6312674 -137.74613953 200.3497467 C-138.46284317 201.10186935 -139.17954681 201.853992 -139.91796875 202.62890625 C-141.45806564 204.21378392 -142.99911138 205.79774 -144.54101562 207.38085938 C-146.96200091 209.87598902 -149.37632345 212.37638889 -151.7746582 214.89331055 C-154.09578768 217.32368648 -156.44176709 219.72765799 -158.79296875 222.12890625 C-159.85284248 223.26012657 -159.85284248 223.26012657 -160.93412781 224.41419983 C-165.15387366 228.67729934 -168.12774488 230.66663623 -174.19038391 230.99205017 C-177.92746137 230.65606925 -179.5577051 229.4422949 -182.1875 226.8125 C-185.77451897 219.58745316 -187.94370122 211.60624259 -190.33984375 203.9296875 C-190.7218544 202.71660919 -191.10386505 201.50353088 -191.49745178 200.25369263 C-192.50602623 197.04846557 -193.51125831 193.84223066 -194.51483154 190.63543701 C-195.52199251 187.4201182 -196.53365717 184.20621748 -197.54492188 180.9921875 C-199.08395434 176.0983857 -200.61954942 171.20352912 -202.15185547 166.30761719 C-203.38324545 162.37364761 -204.62006233 158.44154904 -205.86767578 154.51269531 C-206.10716446 153.755784 -206.34665314 152.99887268 -206.59339905 152.21902466 C-207.19791233 150.30966933 -207.80500169 148.40113009 -208.41235352 146.49267578 C-209.1875 143.8125 -209.1875 143.8125 -209.1875 141.8125 C-210.16976562 141.70164062 -211.15203125 141.59078125 -212.1640625 141.4765625 C-216.47069628 140.85763216 -220.44569308 139.5621248 -224.5625 138.1875 C-232.22031971 135.69581483 -239.92420347 133.45158514 -247.6875 131.3125 C-250.84649666 130.43135195 -254.00457842 129.54702979 -257.16210938 128.66064453 C-259.13118054 128.10863088 -261.10119049 127.55995149 -263.07226562 127.01513672 C-265.70079862 126.28162512 -268.31956211 125.52034522 -270.9375 124.75 C-272.08895508 124.43675781 -272.08895508 124.43675781 -273.26367188 124.1171875 C-278.61121997 122.50082455 -281.05356749 120.46499826 -284.1875 115.8125 C-284.8125 112.8125 -284.8125 112.8125 -284.1875 109.8125 C-280.57716183 104.58951553 -277.344949 102.52484526 -271.453125 100.39453125 C-270.68436539 100.09992508 -269.91560577 99.80531891 -269.12355042 99.50178528 C-266.5674468 98.52640012 -264.00272182 97.57611688 -261.4375 96.625 C-259.60825895 95.93139209 -257.77974207 95.23587172 -255.9519043 94.53857422 C-252.05400683 93.05356511 -248.15293319 91.57735861 -244.24951172 90.10693359 C-235.16647574 86.67826456 -226.12171849 83.15084247 -217.07336426 79.63192749 C-213.9725422 78.42682884 -210.8707191 77.22434368 -207.76855469 76.02270508 C-192.94679454 70.28089585 -178.14125309 64.4984184 -163.34262085 58.69729614 C-149.53845735 53.2865915 -135.71972034 47.91478011 -121.89144897 42.56600952 C-105.37571492 36.17733707 -88.88190665 29.7376295 -72.42129517 23.20812988 C-69.40917607 22.01355388 -66.39646052 20.82049519 -63.38354492 19.62792969 C-54.93023428 16.28125097 -46.47838169 12.93143093 -38.0377655 9.55284119 C-34.68464363 8.21329408 -31.32778783 6.88331262 -27.96987915 5.55581665 C-26.42841672 4.94392205 -24.88862055 4.32781 -23.35067749 3.7071228 C-21.25749488 2.8627558 -19.15899047 2.03325594 -17.05859375 1.20703125 C-15.89255615 0.74143799 -14.72651855 0.27584473 -13.52514648 -0.20385742 C-8.65634029 -1.63875027 -4.76484161 -1.77513707 0 0 Z " fill="#FEFEFE" transform="translate(394.1875,134.1875)"/>
<path d="M0 0 C0.77734375 2.2265625 0.77734375 2.2265625 1 5 C-0.80859375 7.2109375 -0.80859375 7.2109375 -3.4375 9.375 C-4.36949219 10.16003906 -5.30148437 10.94507813 -6.26171875 11.75390625 C-7.61716797 12.86572266 -7.61716797 12.86572266 -9 14 C-10.25440028 15.09916512 -11.50479024 16.20293401 -12.75 17.3125 C-15.20187078 19.45357026 -17.67100761 21.57293416 -20.15234375 23.6796875 C-26.10513072 28.74093768 -31.98029505 33.8496049 -37.6875 39.1875 C-41.49999544 42.75329112 -45.36034558 46.17100786 -49.4375 49.4375 C-55.14577779 54.01914402 -60.44296038 58.98802436 -65.77734375 63.9921875 C-68.82137013 66.84546778 -71.92966877 69.61188009 -75.08984375 72.3359375 C-77.36204511 74.31540126 -79.58459872 76.3458317 -81.8125 78.375 C-85.18940982 81.42858867 -88.63217132 84.34429205 -92.1875 87.1875 C-98.24536549 92.08370094 -103.86720489 97.40817418 -109.53125 102.75 C-112.74444694 105.77622211 -116.02432306 108.71034375 -119.38671875 111.5703125 C-119.91910156 112.04210937 -120.45148438 112.51390625 -121 113 C-121.66862061 113.5674292 -122.33724121 114.1348584 -123.02612305 114.71948242 C-125.44940658 117.51922163 -125.72732361 119.26951381 -126.1953125 122.91796875 C-126.35290039 124.08295898 -126.51048828 125.24794922 -126.67285156 126.44824219 C-126.82206055 127.68219727 -126.97126953 128.91615234 -127.125 130.1875 C-127.28967773 131.44079102 -127.45435547 132.69408203 -127.62402344 133.98535156 C-128.1012574 137.6548555 -128.5547575 141.32649234 -129 145 C-129.12149414 145.98242676 -129.24298828 146.96485352 -129.36816406 147.97705078 C-129.94441161 152.64809623 -130.4919993 157.32104621 -131 162 C-131.99 162 -132.98 162 -134 162 C-137.52542121 151.76127671 -140.77637013 141.49585078 -143.66503906 131.05883789 C-144.96373878 126.42870956 -146.35819782 121.86054828 -147.93359375 117.31640625 C-148.25658447 116.38417236 -148.5795752 115.45193848 -148.91235352 114.49145508 C-149.5344204 112.71991335 -150.1682392 110.95243502 -150.81616211 109.19018555 C-152.68897971 103.864013 -154.19030726 98.65305168 -153 93 C-151.16796875 90.859375 -151.16796875 90.859375 -148 89 C-146.39102909 87.96493623 -144.78307325 86.92829393 -143.17578125 85.890625 C-141.22349133 84.67364815 -139.26891457 83.46033493 -137.3125 82.25 C-136.25740234 81.59386719 -135.20230469 80.93773437 -134.11523438 80.26171875 C-125.33307583 74.80715475 -116.52579317 69.39328314 -107.71606445 63.98339844 C-100.45622969 59.52229512 -93.22038129 55.02464527 -86 50.5 C-77.69101859 45.29318447 -69.35605624 40.13092261 -61 35 C-52.50175002 29.78025305 -44.02016478 24.53527594 -35.5625 19.25 C-34.58112061 18.63825928 -33.59974121 18.02651855 -32.58862305 17.39624023 C-27.84959413 14.43588426 -23.13309343 11.44751849 -18.453125 8.39453125 C-17.58357178 7.8315332 -16.71401855 7.26853516 -15.81811523 6.68847656 C-14.1967242 5.63630232 -12.58119559 4.5750146 -10.97290039 3.50292969 C-4.4576568 -0.71217002 -4.4576568 -0.71217002 0 0 Z " fill="#5FBEE1" transform="translate(350,177)"/>
</svg>
